<svg fill="currentColor" xmlns="http://www.w3.org/2000/svg" viewBox="0 0 1000 295.11"><path d="M976.8 32.46C954.89 10.53 921.59 0 867.2 0h-99.07l-18.41 68.57c42.77-.7 86.76-.38 131.77 1.17 18.1.93 31.84 7.55 35.5 20.58 3.74 13.24-2.9 27.99-16.48 37.62-9.09 6.45-19.49 10.13-37.49 10.13-9.32 0-106.76-.82-131.9-.24l-42.25 157.28h98.63l21.52-80.1h41.74c93.59 0 149.24-49.32 149.24-123.08 0-23.2-7.59-43.84-23.2-59.44zM415.34 94.5c-65.3 8.65-134.07 19.83-202.03 34.05L301.56 0h99.57zm30.16 200.6H340.53l-6.4-51.66h-94L206.5 295.1H98.99l35.25-51.66H0c130.82-39.26 287.08-66.1 425.28-82.9zm75.37-144.93c36.26-3.46 70.22-6.15 100.82-8.12L580.6 295.1h-98.65zM745.83 0l-18.47 68.8c-63.08 1.36-163.5 7.47-277.25 21.29L474.3 0z" style="fill:#04014f"/></svg>