<svg xmlns="http://www.w3.org/2000/svg" fill="currentColor" viewBox="0 0 24 24"><path d="M12.03 21q-.43 0-.72-.29t-.29-.71v-1.15q-1.12-.25-1.97-.87t-1.37-1.75q-.18-.35-.02-.74t.59-.56q.35-.15.73 0t.57.55q.43.75 1.08 1.13t1.6.39q1.02 0 1.73-.46t.71-1.44q0-.87-.55-1.39t-2.55-1.16q-2.15-.68-2.95-1.61t-.8-2.29q0-1.63 1.06-2.53t2.14-1.02V4q0-.42.3-.71t.7-.29.72.29.28.71v1.1q.96.15 1.66.61t1.15 1.14q.22.33.08.73t-.56.57q-.35.15-.72.01t-.7-.49-.77-.53-1.08-.19q-1.1 0-1.68.49t-.58 1.21q0 .83.75 1.3t2.6 1q1.73.5 2.62 1.59t.88 2.51q0 1.78-1.05 2.7t-2.6 1.15V20q0 .43-.28.71t-.72.29"/></svg>